<svg xmlns="http://www.w3.org/2000/svg" viewBox="0 0 598.64 496"><defs><style>.a{fill:#e5f3fe;}.b{fill:#4e9982;}.c{fill:#83ac96;}.d{fill:#43b3b9;}.e{fill:#7ccccd;}.f{fill:#f4c086;}.g{fill:#52c0c1;}.h{fill:#84ad97;}.i{fill:#4e9983;}.j{fill:#a9623a;}.k{fill:#d6d6d6;}.l{fill:#819a72;}.m{fill:#d5efde;}.n{fill:#91a386;}.o{fill:#7da996;}.p{fill:#fefefe;}.q{fill:#e5f3e9;}.r{fill:#ddc38e;}.s{fill:#dccfa9;}.t{fill:#6a7b59;}.u{fill:#d8e6dd;}.v{fill:#daf5e4;}.w{fill:#d8f4e3;}.x{fill:#a6cab6;}.y{fill:#d8f2e1;}.z{fill:#819a71;}</style></defs><path class="a" d="M98.14,266.66c-2-9.78-4.7-19.43-5.63-29.42-.35-3.68-3-4.2-6.08-4.19-22.68,0-45.36-.21-68,.14-7.5.12-15-4.73-16.64-11.52-3.26-13.67.37-28,18.65-28,38.64-.14,77.27-.21,115.91.06,11.07.07,22.75-9.31,22-21.78-.47-8.19-1.93-15.06-8.8-20.08a18.62,18.62,0,0,0-11.35-3.6c-15.12,0-30.23,0-45.35,0-9.36,0-17.37-5.75-19.15-14.49-2.86-14,4.19-25.91,19.69-25.83,8.68,0,17.36-.06,26,.06,2.57,0,4.13-.78,6-2.8A165.45,165.45,0,0,1,166.7,72.07a138.56,138.56,0,0,1,41.64-15.84c18.07-3.58,35.78-2.75,52.91,4.2,10.5,4.27,18.39,11.92,24.87,21.12,6.11,8.68,11.49,17.81,16.81,27,.61,1,.72,3.08,2.86,1.86,1.38,1.43.35,3,.23,4.47-1.61,7-3.56,13.83-4.79,20.85-.83,4.71-3.06,6.9-7.77,7.77-18,3.32-31.37,13.34-40.3,29.3a51.35,51.35,0,0,0-5,13.3q-10.08,42.66-20,85.36c-.57,2.43-.73,5-2.47,7.05a2.77,2.77,0,0,1-1.33.56C217,278,210,275.61,202.69,274.21a434,434,0,0,0-56-7.25C130.49,266,114.32,266.12,98.14,266.66Z" transform="translate(-0.68 -0.89)"/><path class="b" d="M319.33,440.47a1.42,1.42,0,0,1-.56.25,2.21,2.21,0,0,1-3.07-.39c-1.4-2.89,1.12-5.81-.06-8.71-1.2-1.72-3.09-2.33-4.9-3.06-9.21-3.75-19-5.77-28.42-8.72-7.6-2.36-15.26-4.55-22.55-7.8-1.39-.62-2.94-1-3.7-2.57,0-4.13,1.68-7.89,2.93-11.7,10.69-32.36,21-64.85,31.8-97.16.88-2.65,1.49-5.38,2.4-8,.59-1.72,1.1-3.53,3.16-4.14,16.5-1.7,33-2.7,49.4.61,2.44.5,5,.83,7.11,2.28,1.6,1.71,1,3.66.51,5.54C349.7,312.2,346.91,327.73,343,343c-2.89,11.83-5.51,23.73-8.31,35.58-4.6,19.09-9,38.23-13.52,57.32C320.77,437.49,320.66,439.23,319.33,440.47Z" transform="translate(-0.68 -0.89)"/><path class="a" d="M369.76,222.92c1.61,3.79,4.05,1.22,5.34.19,3.21-2.57,4.95-.84,6.78,1.53,9.8,12.68,20.44,24.65,30.94,36.74q4.65,5.37,9.16,10.85c2.32,2.82,5.2,3.74,8.85,3.74,49-.1,98,.18,147-.27,9.74-.09,22.7,11.81,21.38,21.48-.73,5.27,1.39,11-2.61,15.7-2,.69-3.87-.11-5.71-.73-18.67-6.3-37.89-9.34-57.53-10.79s-39.06.31-58.57,1.63c-11.43.78-22.93.28-34.39.21-27.63-.18-54.91-3.69-82-8.88-1.63-.31-3.35-.51-4.53-1.91-1.44-1.89-1-4-.52-6,4.8-19.62,9.14-39.35,13.87-59C368.17,226,367.23,223.46,369.76,222.92Z" transform="translate(-0.68 -0.89)"/><path class="c" d="M369.76,222.92c-.52,1.47-1.05,2.93-1.57,4.4a17.18,17.18,0,0,0-7.76-1.35q-18.26,0-36.49,0c-2.09,0-4.2.18-6.23-.51-1.82-.86-1.77-2.44-1.28-4,4.49-14,9.13-27.89,13.71-41.84a2.94,2.94,0,0,1,1-1.29c8,.71,15.31,2.7,19.45,11l1.31-1.44c-5.17-7.93-10.76-15.59-16.28-23.31,1.3-7.39,4.27-14.27,6.37-21.42,3.83-11.06,3-12.66-8-16.28-1.32-.43-2.63-.87-4-1.19-4.22-1-6.9.31-8.81,4.22-.72,1.47-.91,3.25-2.52,4.19-3.5-.36-4.4-3.7-6.52-5.65.07-5.51,2.06-10.65,3.26-15.92,4.39-19.31,9-38.58,13.48-57.87.44-1.9,2.23-4.33-1-5.71l-1.22-.14c-2.24.18-2,2.14-2.29,3.48-4.71,19.82-9.31,39.67-14,59.5-.44,1.87-.45,3.92-2,5.37-1.93.21-2.53-1.25-3.25-2.57l.63-4.23q7.35-31.29,14.75-62.58a4.54,4.54,0,0,0-.75-4.17c-1.93-2.78-.73-5.13,2.77-5.4,2.05-.16,2.49-1,2.83-2.74.72-3.82,1.67-7.61,2.58-11.39.59-2.44,1.5-4.61,4.66-4.29,1.6,1.39.3,2.83,0,4.17-.73,3.09-1.54,6.15-2.37,9.57.93-1.07.8-2.33,1.73-3a1.07,1.07,0,0,1,1.08.06c1.15,2-.25,5.71,3.85,5.71,7.67,2.59,15.71,3.7,23.45,6,2.32.68,3.23-.45,3.91-2.49,1.25-3.8,1.1-8,3.42-11.5l.57-.29c3.06,1.18,3.77,3.22,2.79,6.33s-1.41,6.26-2.17,9.37c-.59,2.39-1.64,4.4,1.71,6.18,2.14,1.13,1.67,4.09-.77,5.45a4.24,4.24,0,0,0-2.5,3Q356.76,104,346.07,149.59c-.48,2-.36,3.18,1.45,4.52,21.78,16.17,28.93,37.7,23.15,63.89C370.32,219.63,370.07,221.28,369.76,222.92Z" transform="translate(-0.68 -0.89)"/><path class="d" d="M353.66,291.93c12.79,3,25.8,4.84,38.81,6.56a453.31,453.31,0,0,0,76.63,3.39c16.91-.63,33.74-2.83,50.7-2.42,26.28.65,52.1,3.84,76.82,13.42-4.33,8-11.17,11.87-20.15,11.9-20.83.06-41.66,0-62.5,0q-61,0-122-.06c-12.15,0-22.31,10.1-22.92,22.57a4.1,4.1,0,0,1-3.51.89c-7.24-1.22-14.5-2.36-21.66-4a3.18,3.18,0,0,1-1.74-1.06c1.82-8.38,3.67-16.76,5.45-25.14,1.85-8.66,3.63-17.33,5.44-26C353.18,291.66,353.41,291.65,353.66,291.93Z" transform="translate(-0.68 -0.89)"/><path class="e" d="M319.33,440.47c1-7.89,3.29-15.47,5.07-23.18q4.22-18.27,8.46-36.54a20.5,20.5,0,0,1,.87-2.33c5.28-2.24,11-1.66,16.42-1.94,11.21-.56,22.22,1.32,33.16,3.8q40.85,9.27,82.07,16.74c2.71.49,5.25.88,7-1.92,3.26,15.09-6.72,30.07-23.81,30.18-22.94.14-45.89.05-68.83,0a16.28,16.28,0,0,0-7.24,1.61c-15.39,7.3-31.72,11.34-48.56,13.5A41.46,41.46,0,0,1,319.33,440.47Z" transform="translate(-0.68 -0.89)"/><path class="f" d="M98.14,266.66C98.47,265,99.73,265,101,265c42-1,83.52,1.85,124.13,13.45a2.26,2.26,0,0,1,.62,2.31,170.06,170.06,0,0,1-4.19,17.54,3,3,0,0,1-1.49,1.95c-16.87.92-33.71,2.88-50.63,2.41-20.57-.58-40.8-3.8-60.8-8.59a5.33,5.33,0,0,1-4.39-4.35C102.29,282,100.2,274.34,98.14,266.66Z" transform="translate(-0.68 -0.89)"/><path class="g" d="M172.2,394.48c-13-10.07-23.68-22.32-33.43-35.45a141.41,141.41,0,0,1-12.4-19.3c3.35-2.1,7.25-1.79,10.92-2.34,22.66-3.38,45.12-8,67.84-11,2.9-.39,6-1.74,8.83.37.92,5.31-1.3,10.2-2.41,15.15-3.76,16.78-7.6,33.56-11.73,50.26-.43,1.76-.71,3.62-2.58,4.58A56.21,56.21,0,0,1,172.2,394.48Z" transform="translate(-0.68 -0.89)"/><path class="d" d="M213.55,327.17c-6.51-.66-12.78,1.06-19.1,2.05-16.13,2.54-32.2,5.39-48.32,8-6.56,1.06-13.08,2.45-19.76,2.52-7.76-12.79-13.73-26.39-19-40.91,8.12,1.49,15.72,2.93,23.33,4.26,24.26,4.24,48.58,4.2,72.94.9,5.25-.71,10.5-1.33,15.75-2,1.12,1.16.92,2.55.63,3.92-1.32,6.24-2.83,12.45-4.41,18.63C215.34,325.64,215.32,327.14,213.55,327.17Z" transform="translate(-0.68 -0.89)"/><path class="g" d="M472.37,395.1c.06,2.77,0,4.38-4,3.66-22.15-3.93-44.19-8.33-66.18-13.05-11.13-2.39-22.17-5.43-33.41-7-8.18-1.13-16.56-2.26-25-.48-3.22.68-6.69.15-10,.17,2.44-11.85,5-23.68,8.36-35.3,7.47,1.23,15,2.38,22.39,3.74a28.86,28.86,0,0,0,4.52.46c.19,3.62.13,7.27,1.14,10.8,3,10.48,11.65,16.6,23.8,16.65,18.73.08,37.46,0,56.18.07A22.2,22.2,0,0,1,472.37,395.1Z" transform="translate(-0.68 -0.89)"/><path class="a" d="M39,147.37c-11,1.48-20.14-7.19-19.85-20.2a19.36,19.36,0,0,1,19.59-19.38c11.49.15,20.84,6.94,20.28,21.18C58.59,140.43,51.42,147.37,39,147.37Z" transform="translate(-0.68 -0.89)"/><path class="g" d="M484.86,395.13c2-11.05,10.7-18.23,21.84-18.74,10.15-.46,18.84,1.7,24.51,10.92,4.15,6.72,3.9,14,2.48,21.36-1.59,1.32-3.39.94-5.19.69-12.54-1.81-25.1-3.43-37.59-5.55C483.89,402.61,483.84,402.55,484.86,395.13Z" transform="translate(-0.68 -0.89)"/><path class="h" d="M315.94,439.66c.67,1.07,1.83.87,2.83,1.06-2.85,12.3-5.55,24.64-8.6,36.89-2,8.05-7.67,12.93-15.21,15.83-4.47,3.06-11.51,2.77-16-.65-25.08-5.89-50.18-11.72-75.24-17.7-13.34-3.18-20.31-14.84-17.41-28.32,2.61-12.11,6.15-24,7.83-36.31-.29-.89.23-1.1.95-1.15,1.52,1.18,3.22,2.21,4,4.13-.41,8.43-3.31,16.36-4.94,24.55-.79,4-2.07,7.83-2.15,11.92-.18,9.64,5,16.64,14.31,19.13,12,3.22,24.21,5.69,36.29,8.64,12.35,3,24.77,5.73,37.12,8.71,5,1.2,10,1.6,14.9.06A16.49,16.49,0,0,0,306,474.58c2.77-10,4.94-20.08,7.36-30.13C313.81,442.68,313.47,440.39,315.94,439.66Z" transform="translate(-0.68 -0.89)"/><path class="e" d="M484.86,395.13a3.35,3.35,0,0,1,.06.83c-.84,4.24.71,6,5.19,6.57,14.56,1.79,29.06,4.05,43.58,6.14-.94,7.1-5.25,11.8-11.17,15.15-8.56,4.85-22.49,3.6-29.91-2.67C484.4,414.21,482.77,405.2,484.86,395.13Z" transform="translate(-0.68 -0.89)"/><path class="i" d="M198.39,412.83c-1.49-.78-3.29-1.25-3.46-3.39-1.3-4.88.42-9.17,2.59-13.38,2.68-11.2,5.42-22.38,8-33.59,2.73-11.76,5.34-23.54,8-35.3A192.09,192.09,0,0,0,219.4,302l.93-.89c2.63-1,5.35-2.94,7.54.71.36,4.72-1.47,9.07-2.52,13.51-5.9,25.14-11.66,50.31-17.66,75.42a20.92,20.92,0,0,1-1.68,5.16c-2.57,3.42-3.79,7.41-4.91,11.46C200.55,409.33,200.35,411.53,198.39,412.83Z" transform="translate(-0.68 -0.89)"/><path class="j" d="M335.26,18.94c1.16-4.89,2.37-9.77,3.46-14.67.6-2.7,2.1-3.84,4.82-3.21l25.71,6c2.84.66,3.33,2.47,2.68,5.09-1.31,5.28-2.46,10.6-3.67,15.91l-.37.08c-2.32,1.46-4.62.26-6.81-.26C353.4,26,345.72,24.24,338,22.51a5.92,5.92,0,0,1-2-.53C334.7,21.22,334.61,20.16,335.26,18.94Z" transform="translate(-0.68 -0.89)"/><path class="k" d="M278.94,492.79c5.28,1.62,10.61,2.26,16,.65,2.91,2,6.32.11,9.49,1.28-.71,1.8-2.27,1.2-3.49,1.27-20.53,1.17-41.08.85-61.63.88-11.75,0-23.51-.1-35.27,0-7.82.07-15.58-1.39-23.42-.9a3.67,3.67,0,0,1-3.51-1.52c6.54-.33,12.8-1,19.05-.9,17.62.33,35.21-1.31,52.82-.81,8.64.25,17.28.92,25.94.7C276.29,493.42,277.77,494,278.94,492.79Z" transform="translate(-0.68 -0.89)"/><path class="e" d="M197.52,396.06q-1.29,6.69-2.59,13.38l-.81,1c-7.75-4.72-15.29-9.72-21.92-16C180.65,394.85,189,396.48,197.52,396.06Z" transform="translate(-0.68 -0.89)"/><path class="l" d="M227.07,301.94c-2-2-4.53-.25-6.74-.85-.07-.29-.14-.57-.22-.85q2.53-10.9,5.06-21.8l.18-.06c2.76-1,4.94.22,7.05,1.78,1.11,2.24,0,4.34-.38,6.49-.78,4.09-1.76,8.13-2.83,12.16C228.86,300,229,301.72,227.07,301.94Z" transform="translate(-0.68 -0.89)"/><path class="m" d="M332.85,30.61a2.38,2.38,0,0,0-.6.53c-.92,1.56-.09,5.2-2.46,4.51-2.13-.62-.06-3.58.31-5.44.69-3.5,1.67-6.93,2.53-10.39l1.93-.06C336,23.69,334.34,27.14,332.85,30.61Z" transform="translate(-0.68 -0.89)"/><path class="n" d="M332.85,30.61c-.36-3.77,1.68-7.15,1.71-10.85.24-.27.47-.55.7-.82.18.91.06,1.95,1.1,2.48-.59,3.28-.12,7-3.53,9.18Z" transform="translate(-0.68 -0.89)"/><path class="o" d="M232.07,280.12c-2.41.08-4.43-1.33-6.72-1.74,7.24-30.93,14.08-62,21.87-92.77,6-23.89,22-38.3,46.1-43.23,4.21-.86,6-2.49,6.79-6.65,1.33-7.11,3.33-14.08,5.05-21.11,1.12.61,2.49,1,2.53,2.62,1.26,1.36.62,2.88.36,4.37-.8,4.69-2.27,9.23-3.2,13.89-.24,1.22-1.57,2.85.47,3.9a2.67,2.67,0,0,1,1,.38c2.47,1.75,2.61-.43,3.18-1.88,1.17-3,.73-6.55,3.32-9,3.11.3,3.13,4,5.61,5a1.83,1.83,0,0,1,.62,1.16c-1.41,6.86-3.85,13.43-6,20-11,33.18-21.62,66.48-32.54,99.68-4.1,12.48-8.25,25-12.28,37.46-.46,1.42-.54,3.09-2.08,4a2.09,2.09,0,0,1-1.59-1c-4.73-3.83-10.58-5.37-16-7.8-3.91-1.75-8.25-2.43-11.87-4.87-.91-2.27,0-4.45.49-6.58,6.53-27.49,13.07-55,19.27-82.55,4.71-20.9,18.08-33.41,37.59-40.4,1.73-.62,5.28-.79,4.65-2.48-.95-2.49-3.9-.62-5.85,0-14.49,4.78-26.06,13.26-33.6,26.82A44.31,44.31,0,0,0,255,188.76c-6.94,29-13.47,58.05-20.53,87C234.06,277.34,234.48,279.56,232.07,280.12Z" transform="translate(-0.68 -0.89)"/><path class="p" d="M143.83,241.46c-8.82,0-17.64,0-26.45,0-5.81,0-8.58-2.15-8.86-6.69-.4-6.41,1.81-9.44,7.74-10a4.27,4.27,0,0,0,3.73-2.79,9.86,9.86,0,0,1,8.69-5.63c2.1-.13,3.19-1.16,4.33-2.74,5.11-7.06,14.28-7.79,20.29-1.63,1.95,2,3.65,3.61,6.92,3.73s5.79,2.93,6.75,6.14c.65,2.14,1.42,2.87,3.65,2.91,5.26.1,8.45,3.41,8.46,8.34,0,5.21-3.27,8.38-8.79,8.4C161.47,241.48,152.65,241.46,143.83,241.46Z" transform="translate(-0.68 -0.89)"/><path class="q" d="M265.72,296.2q11.75-35.77,23.49-71.54,11.51-35.21,23-70.45c2.12-6.48,4.31-12.94,6.47-19.41a1.35,1.35,0,0,1,1.54.31c3,4,7.5,5.06,11.85,6.54,2.84,1,5.6,1.55,8.56.44.82-.31,2.3-.9,2.33,1.06q-3.33,10.93-6.64,21.88A26.15,26.15,0,0,1,332,178.4c-4.22,12.63-8.47,25.25-12.64,37.9-.91,2.75-2.24,5.39-2.41,8.36.7,1.58,0,3-.5,4.46-6.37,18.66-12.1,37.52-18.44,56.19a9.22,9.22,0,0,1-2.12,4c-4.24,12.67-8.56,25.33-12.71,38q-13.36,41-26.6,82c.41,9.93-5.64,14.72-14.83,11.72-1.86-.61-3.72-1.21-5.56-1.88-7.1-2.59-9.35-6.92-7-14.12a116.76,116.76,0,0,1,4.11-11.89C235.77,384,239,375,242,366c7-21.55,13.79-43.21,21.16-64.66C263.74,299.51,264,297.44,265.72,296.2Z" transform="translate(-0.68 -0.89)"/><path class="r" d="M198.39,412.83c2.16-5.62,2.14-12.09,6.59-16.8,1.43,1.54.48,3.2.15,4.76-3,14.38-6.49,28.67-9.86,43-.59,2.52-1.51,5-.91,8.05,2.32-.87,2.2-2.76,2.58-4.23,3-11.66,5.45-23.45,8.37-35.13.47-1.88.7-3.88,2.06-5.44,2.06-.77,3.07.87,4.24,1.95,19.37,17.88,42.63,26.53,68.55,28.84a62.86,62.86,0,0,0,32.55-6c1.39-.65,2.78-1.4,4.36-.51.84,3-1.1,5.55-1.13,8.4-2.7,10.92-5.62,21.79-8,32.78-2.81,12.73-13,18.47-25.71,15.67-25.43-5.61-50.73-11.83-76-17.95-11.27-2.73-17.43-13-15-24.31C193.48,434.83,196.68,424,198.39,412.83Z" transform="translate(-0.68 -0.89)"/><path class="o" d="M295.86,289.35c.51-3.91,2.15-7.48,3.35-11.17Q307.52,252.54,316,227c.26-.79.64-1.53,1-2.3h47.25c1.92,0,4.16-.47,4,2.66q-4.47,19.69-8.93,39.4c-1.89,8.4-3.73,16.81-5.6,25.21a3.91,3.91,0,0,0-.68.06c-9.93-3.06-20.25-3.76-30.48-4.1C313.65,287.6,304.75,288.8,295.86,289.35Z" transform="translate(-0.68 -0.89)"/><path class="s" d="M317.07,431.26c-6.46,2.57-12.78,5.54-19.71,6.79-12.26,2.22-24.37,1.2-36.28-2-12.3-3.28-24.16-7.78-35.1-14.47-6.71-4.1-12.52-9.28-18.24-14.61a2.46,2.46,0,0,1-.52-2.68c1.56-4.79,1.22-10.14,4.23-14.51,7.5-3.83,17.34-2.29,22.9,3.59-1.45,4.2-3,8.38-4.31,12.62-1.94,6.22,0,9.86,6.11,12,2.5.85,5,1.7,7.53,2.5,5.5,1.75,9.12-.09,11-5.6.64-1.83,1.23-3.68,1.84-5.52,13.89,6.71,29,9.87,43.55,14.48C306,425.69,312.43,426.49,317.07,431.26Z" transform="translate(-0.68 -0.89)"/><path class="t" d="M337.82,21.42l30.07,6.7c-.55,4.71-1.94,9.23-3,13.82-.43,1.86-1.39,2.35-2.95,2Q349.54,41,337.17,38c-.76-.19-1-.91-1.13-1.62-.88-1.13-.6-2.39-.25-3.57A65.51,65.51,0,0,0,337.82,21.42Z" transform="translate(-0.68 -0.89)"/><path class="u" d="M342.91,143.15c-4.43.55-8.67.8-13.1-.94s-8.46-3.39-11.18-7.41c-.06-.29-.11-.58-.17-.87.59-1.55,1.15-3.11,1.79-4.64,1.7-4,5.12-5.81,9.36-4.7q4.81,1.26,9.52,2.93c5.54,2,7.26,5.45,5.46,11C344.1,140.1,344.11,141.86,342.91,143.15Z" transform="translate(-0.68 -0.89)"/><path class="v" d="M312.85,128.89c-.9,3.72-1.82,7.43-2.69,11.15-.31,1.31-.81,2.36-2.36,2.36-1.74,0-1.87-1.26-1.91-2.56-.85-4,1-7.73,1.84-11.45,6-25.43,11.76-50.91,17.94-76.3.36-1.51.51-3.06,2.07-3.9,3.21-.71,4,.09,3.17,3.59-1.65,7.18-3.44,14.33-5.11,21.5Q319.29,101.08,312.85,128.89Z" transform="translate(-0.68 -0.89)"/><path class="w" d="M305.19,139.86c-.14.89-.49,1.76-1.53,1.54-1.42-.29-1-1.39-.73-2.33q2.16-9.28,4.29-18.57c.25-1.07.32-2.17.47-3.26,3.64-12.44,6.11-25.16,9.15-37.74,2.39-9.9,4.56-19.84,7-29.72.2-.82-.19-5.64,3.07-1.54-4.5,20.21-9.3,40.35-14.1,60.49C310.36,119.13,308.53,129.68,305.19,139.86Z" transform="translate(-0.68 -0.89)"/><path class="o" d="M332,178.4a73.89,73.89,0,0,1,4.3-13.37c5.39,4,7.66,10.44,11.81,15.42a61.84,61.84,0,0,1,4.5,6.48c.53.84,1.5,2,.11,2.89-1,.65-2.52.73-3-.28-3.5-6.84-9.55-9.17-16.63-9.92C332.63,179.58,332.32,178.83,332,178.4Z" transform="translate(-0.68 -0.89)"/><path class="x" d="M305.19,139.86c2.77-12.06,5.51-24.12,8.31-36.17q6.25-26.84,12.59-53.64a9.3,9.3,0,0,1,.85-1.81l.8-.05c-4.73,20.16-9.35,40.35-14.25,60.48-2.54,10.39-4.35,21-7.6,31.17l-.35,0Z" transform="translate(-0.68 -0.89)"/><path class="y" d="M337.82,21.42c1.53,1.5,1,3.27.64,5-.77,3.32-1.61,6.62-2.42,9.93-2.47,1.45-3.56.66-3.42-2.1.06-1.22.14-2.44.21-3.65,2-2.73,1.07-6.61,3.53-9.18Z" transform="translate(-0.68 -0.89)"/><path class="v" d="M211.9,390.1q-2.09,8.46-4.16,16.9-5.1,21.94-10.22,43.87c-.37,1.59-1.08,3.15-3,2.75-2.48-.52-2.15-2.5-1.72-4.37q5.12-21.93,10.2-43.86c.71-3.11,1.32-6.25,2-9.37q4.75-19.93,9.52-39.87,6-25.44,12-50.91c.26-1.08.37-2.2.55-3.3a189.83,189.83,0,0,0,5-21.82c3.34-13.79,6.73-27.57,10-41.38,4.25-17.91,7.66-36.05,12.81-53.69,5-17.24,17.88-27.9,34.28-34.4a54.46,54.46,0,0,1,8-2.42c1.4-.32,3.27-.68,3.75,1.5s-1,3-2.78,3.4a54.92,54.92,0,0,0-14,5.42c-15.83,8.45-24,22-27.67,39.3-5.5,26-11.94,51.89-18,77.82-.53,2.3-.93,4.63-1.39,6.95.69,4.5-1.3,8.58-2.06,12.85-.26,1.49-.79,2.92-1.07,4.4-6.5,28.47-13.36,56.86-19.85,85.33A9.58,9.58,0,0,1,211.9,390.1Z" transform="translate(-0.68 -0.89)"/><path class="b" d="M211.9,390.1c3.35-14.65,6.64-29.31,10.06-44,3.64-15.59,7.4-31.15,11.11-46.73,10.58-3.46,21.34-5.72,32.55-5.09,0,.62.07,1.24.1,1.87q-10.7,33-21.39,66.11-5,15.54-10,31.09c-2-.19-3.36-1.81-5.11-2.58A23.89,23.89,0,0,0,211.9,390.1Z" transform="translate(-0.68 -0.89)"/><path class="z" d="M265.62,294.33l-29.68,4.79c-.95.15-1.91.2-2.87.3q2-8.4,4-16.8A107.72,107.72,0,0,1,265.62,294.33Z" transform="translate(-0.68 -0.89)"/></svg>